Simulation
nRows=36
nColumns=15
endheader
time  TH_x TH_y TH_z SC_y  SC_z  SC_x  AC_y  AC_z  AC_x  GH_y  GH_z  GH_yy  EL_x  PS_y
0.75  0.000000  0.000000  0.000000  -33.89488517207253  2.2066369498387655  19.940930857568077  60.96524092036398  2.0345424622225385  -12.736849617435645  20.572227548621512  29.200700270113003  -17.42570842627878  19.94444500691237  0.000000
0.765  0.000000  0.000000  0.000000  -34.06073222363593  2.354404569404954  20.192670745358758  61.05132899116698  2.4201697960387936  -12.656935564835297  20.646576277162996  29.709804707088182  -17.760029007583217  19.742220664760318  0.000000
0.78  0.000000  0.000000  0.000000  -34.235738265340835  2.5061245521863693  20.451016869891067  61.13751994013045  2.7982220502535133  -12.566687706048766  20.728606321455207  30.203109377856034  -18.093327157334233  19.53925078480667  0.000000
0.7949999999999999  0.000000  0.000000  0.000000  -34.420668088829274  2.6612057681816785  20.716868123711464  61.2255655456112  3.1664165515007427  -12.464966899727328  20.817692392764286  30.680654634782453  -18.42559446200079  19.335722160784222  0.000000
0.8099999999999999  0.000000  0.000000  0.000000  -34.61664350271708  2.8192819775917473  20.990754634540917  61.3178909713833  3.522125363655803  -12.350744281063088  20.91283642662468  31.14300691856288  -18.757102085181288  19.132019138341118  0.000000
0.825  0.000000  0.000000  0.000000  -34.824969960376386  2.979713233692723  21.273728753020084  61.41707943979691  3.862783345666094  -12.223061024251276  21.012829275131857  31.5902821767279  -19.087731005799327  18.92842808107555  0.000000
0.84  0.000000  0.000000  0.000000  -35.04660291577935  3.1415263225486108  21.566357416773894  61.52547489097687  4.18610061726909  -12.081274146212703  21.116366051566025  32.02304766385977  -19.41743939596642  18.725031382946796  0.000000
0.855  0.000000  0.000000  0.000000  -35.28215192366519  3.3035716424501937  21.869277194115657  61.64514160285711  4.490264359293933  -11.925351173623865  21.222344085074695  32.44152422332253  -19.746026746687154  18.522136488733196  0.000000
0.87  0.000000  0.000000  0.000000  -35.53160424002442  3.4645965568923556  22.18227043637213  61.777223196995365  4.774342550107023  -11.755895122610697  21.330068076045144  32.84618775685813  -20.073118027629285  18.32021044014584  0.000000
0.885  0.000000  0.000000  0.000000  -35.7943416198184  3.6231797073251513  22.504965018807518  61.92188901024996  5.038420514800959  -11.574347784014735  21.439296473950506  33.236958022083925  -20.39811348339468  18.120132532796465  0.000000
0.8999999999999999  0.000000  0.000000  0.000000  -36.069144564233355  3.778002362587539  22.83606228062233  62.0782959933125  5.283447173323185  -11.38277509293168  21.55009711855532  33.6140315432104  -20.720337185706107  17.922713217372646  0.000000
0.9149999999999999  0.000000  0.000000  0.000000  -36.3542932108849  3.9279117084403983  23.173869319913834  62.244634859862806  5.511292365938218  -11.183437603313642  21.662363847265116  33.97699945646077  -21.03894652350597  17.728842687869317  0.000000
0.9299999999999999  0.000000  0.000000  0.000000  -36.64749606068701  4.072022986634664  23.51577111007132  62.41838688461321  5.724460797740117  -10.978808627357184  21.775483334645322  34.32567409322125  -21.352919681918873  17.539681345191337  0.000000
0.945  0.000000  0.000000  0.000000  -36.946921093832714  4.209742378292245  23.860300778601655  62.59756704519484  5.924562417634162  -10.770895110944767  21.888876940341426  34.659651447940725  -21.661167036670665  17.355847274603125  0.000000
0.96  0.000000  0.000000  0.000000  -37.250635480262304  4.340452615971208  24.206314328344185  62.78086301605807  6.112484146909976  -10.561798540725244  22.00192147695766  34.97930850311442  -21.96288172270865  17.177558431733225  0.000000
0.975  0.000000  0.000000  0.000000  -37.55644712624216  4.463328461691925  24.55267300660076  62.96699522673985  6.2898238245688  -10.353517902697263  22.11379607659633  35.28439451267995  -22.2568950856954  17.005944162408188  0.000000
0.99  0.000000  0.000000  0.000000  -37.86274288411074  4.577956432828425  24.897852940642277  63.15505086581737  6.457535535776202  -10.147388659865504  22.22395328817491  35.575548182813826  -22.54209732242861  16.84159552963861  0.000000
1.005  0.000000  0.000000  0.000000  -38.16842611992835  4.684107920010671  25.240778455253906  63.34432934878297  6.616190228382364  -9.944303715988807  22.331705864458613  35.852962456909566  -22.817575883109814  16.685147954319234  0.000000
1.02  0.000000  0.000000  0.000000  -38.47206325527259  4.78193180010316  25.5799824180058  63.53352912372863  6.7658281027971405  -9.745383116463946  22.435561109529548  36.117270338159436  -23.082307598844537  16.537286150286846  0.000000
1.035  0.000000  0.000000  0.000000  -38.77197049009941  4.8720920340723  25.914373824091133  63.721168099393935  6.90616196526459  -9.551166776772064  22.533167141759286  36.368221277347345  -23.335345359063645  16.39807229468692  0.000000
1.05  0.000000  0.000000  0.000000  -39.06662655979487  4.955191974513052  26.241755458931415  63.90562534833983  7.037420763870034  -9.361704316895592  22.622169346636827  36.606143300386876  -23.575709543201025  16.267807679860407  0.000000
1.065  0.000000  0.000000  0.000000  -39.355828536238214  5.0317706221092084  26.56139211873367  64.08660372418102  7.159418580957394  -9.177184609557187  22.701963089123822  36.831035505223866  -23.80252450281484  16.1466667804403  0.000000
1.08  0.000000  0.000000  0.000000  -39.63865079819282  5.1018154105146305  26.87228797799287  64.26354356155747  7.272560594830919  -8.99874682130615  22.772812505406613  37.04360230611742  -24.01495183475385  16.035349335969812  0.000000
1.095  0.000000  0.000000  0.000000  -39.9133155502181  5.16482178627156  27.173610218672454  64.43584102356817  7.377953734445123  -8.827601985342088  22.83452324475138  37.24393797092367  -24.21207366914381  15.934605902284598  0.000000
1.1099999999999999  0.000000  0.000000  0.000000  -40.177901075980394  5.221084044120379  27.464048776623116  64.60276891226239  7.475714809221635  -8.664563217181994  22.886405852825593  37.43308795111229  -24.39336674357992  15.844977584254424  0.000000
1.125  0.000000  0.000000  0.000000  -40.43108949301946  5.2710787399253505  27.742811660579928  64.76352575199071  7.566215224492775  -8.509750063643052  22.928163109573624  37.61104169831434  -24.55802555119872  15.767027185269177  0.000000
1.14  0.000000  0.000000  0.000000  -40.671480913965055  5.315447197541651  28.00869133760369  64.91740201803883  7.649258187490298  -8.363695917468906  22.959399704772878  37.778826542674246  -24.7058335386006  15.701178258197654  0.000000
1.155  0.000000  0.000000  0.000000  -40.89803820629949  5.354813950909751  28.261169239841657  65.0633335819568  7.7251691152736335  -8.226305712282564  22.98027451575013  37.93616118258668  -24.836198789771686  15.647790867424295  0.000000
1.17  0.000000  0.000000  0.000000  -41.10947878233537  5.390744269003416  28.499372308629887  65.20039007101302  7.7932454046835264  -8.097870324376059  22.990773722784276  38.083864480139596  -24.949331934178634  15.60700784027538  0.000000
1.185  0.000000  0.000000  0.000000  -41.30492723975768  5.423825027670552  28.723166572260844  65.32739770160778  7.853598317600888  -7.978030454587493  22.991214994906564  38.22164180345241  -25.04525510941426  15.578690537497772  0.000000
1.2  0.000000  0.000000  0.000000  -41.48379117297539  5.454744558436699  28.931703213973528  65.44302617225306  7.906424684308805  -7.86714242296128  22.982397387973243  38.35027413846527  -25.124391436831  15.563145974516619  0.000000
1.2149999999999999  0.000000  0.000000  0.000000  -41.64896044908201  5.48412710667578  29.123092502296227  65.54794376860242  7.9533486101499  -7.763734149978081  22.96585476705351  38.47016295679011  -25.18776337459337  15.560636095962291  0.000000
1.23  0.000000  0.000000  0.000000  -41.80198560406256  5.511948625894709  29.29591262009938  65.6417324194853  7.995035813774898  -7.6672206258008035  22.94144749681023  38.58276088604208  -25.23637295224609  15.570484651383332  0.000000
1.2449999999999999  0.000000  0.000000  0.000000  -41.93996365988836  5.539122032779389  29.450687054778268  65.72315383210433  8.032284878816279  -7.579752659805363  22.906376768756804  38.68687728483125  -25.272083375723607  15.591029112615896  0.000000
1.26  0.000000  0.000000  0.000000  -42.062135065794976  5.566101656064637  29.587223174036627  65.7915428305882  8.065153705353591  -7.501947622612173  22.85834962791009  38.78269627938126  -25.296606215781967  15.619859965887288  0.000000
1.275  0.000000  0.000000  0.000000  -42.17101432720246  5.591750884895466  29.705295650871637  65.84842283141873  8.094879828962199  -7.433547056347799  22.7975982864113  38.86959466176536  -25.31255877634551  15.65499831505544  0.000000
